<svg xmlns="http://www.w3.org/2000/svg" version="1.1" xmlns:xlink="http://www.w3.org/1999/xlink" xmlns:svgjs="http://svgjs.dev/svgjs" width="120" height="80" viewBox="0 0 2000 282">
<g transform="matrix(1,0,0,1,-1.2121212121212466,-0.8422478022517623)"><svg viewBox="0 0 396 56" data-background-color="#ffffff" preserveAspectRatio="xMidYMid meet" height="282" width="2000" xmlns="http://www.w3.org/2000/svg" xmlns:xlink="http://www.w3.org/1999/xlink"><g id="tight-bounds" transform="matrix(1,0,0,1,0.2400000000000091,0.16725488271666222)"><svg viewBox="0 0 395.52 55.66549023456668" height="55.66549023456668" width="395.52"><g><svg viewBox="0 0 395.52 55.66549023456668" height="55.66549023456668" width="395.52"><g><svg viewBox="0 0 395.52 55.66549023456668" height="55.66549023456668" width="395.52"><g id="textblocktransform"><svg viewBox="0 0 395.52 55.66549023456668" height="55.66549023456668" width="395.52" id="textblock"><g><svg viewBox="0 0 395.52 55.66549023456668" height="55.66549023456668" width="395.52"><g transform="matrix(1,0,0,1,0,0)"><svg width="395.52" viewBox="4.32 -34.55 248.74 35.01" height="55.66549023456668" data-palette-color="url(#68b278ba-5705-492f-b6d6-0791610f3638)"></svg></g></svg></g></svg></g></svg></g></svg></g><defs></defs><mask id="d217d942-acdf-4e76-b4b1-470f63fe11b2"><g id="SvgjsG3129"><svg viewBox="0 0 395.52 55.66549023456668" height="55.66549023456668" width="395.52"><g><svg viewBox="0 0 395.52 55.66549023456668" height="55.66549023456668" width="395.52"><g><svg viewBox="0 0 395.52 55.66549023456668" height="55.66549023456668" width="395.52"><g id="SvgjsG3128"><svg viewBox="0 0 395.52 55.66549023456668" height="55.66549023456668" width="395.52" id="SvgjsSvg3127"><g><svg viewBox="0 0 395.52 55.66549023456668" height="55.66549023456668" width="395.52"><g transform="matrix(1,0,0,1,0,0)"><svg width="395.52" viewBox="4.32 -34.55 248.74 35.01" height="55.66549023456668" data-palette-color="url(#68b278ba-5705-492f-b6d6-0791610f3638)"><path d="M25.24-2.22L25.24-2.22Q26.54-2.22 26.54-1.12L26.54-1.12Q26.54-0.68 26.01-0.34 25.49 0 24.15 0L24.15 0 4.32 0 4.32-34.55 16.77-34.55 16.77-1.61 21.34-1.61Q22.88-1.61 23.99-1.92 25.1-2.22 25.24-2.22ZM28.85-13.18L28.85-13.18Q28.85-16.11 29.92-18.52 30.98-20.92 32.83-22.71L32.83-22.71Q36.84-26.51 42.89-26.51L42.89-26.51Q49.07-26.51 52.95-22.56L52.95-22.56Q56.66-18.82 56.66-13.11L56.66-13.11Q56.66-7.37 52.85-3.52L52.85-3.52Q48.92 0.46 42.8 0.46L42.8 0.46Q36.81 0.46 32.88-3.32L32.88-3.32Q28.85-7.23 28.85-13.18ZM42.11-24.71L42.11-1.37Q42.31-1.34 42.5-1.34L42.5-1.34 42.84-1.34Q47.78-1.34 51.12-4.39L51.12-4.39Q54.69-7.69 54.69-13.04L54.69-13.04Q54.69-18.26 51.34-21.51L51.34-21.51Q48.04-24.73 42.82-24.73L42.82-24.73 42.45-24.73Q42.28-24.73 42.11-24.71L42.11-24.71ZM72.94 0.46L72.94 0.46Q63.37 0.46 63.37-8.28L63.37-8.28 63.35-24.29 60.54-24.17Q59.22-24.17 59.22-25.17 59.22-26.17 60.64-26.17L60.64-26.17 62.98-26.07 63.35-26.07 63.35-29.86 73.82-34.55 73.82-26.07 77.09-26.07 79.41-26.17Q80.85-26.17 80.85-25.15L80.85-25.15Q80.85-24.68 80.45-24.43 80.05-24.17 79.54-24.17L79.54-24.17 76.51-24.29 73.82-24.29 73.82-1.34Q76.68-1.39 78.58-2.98L78.58-2.98Q79.49-3.66 79.87-4.74 80.24-5.81 80.55-6.12 80.85-6.42 81.27-6.42L81.27-6.42Q81.68-6.42 81.98-6.09 82.27-5.76 82.27-5.31 82.27-4.86 82.03-4.31 81.78-3.76 81.29-3.15L81.29-3.15Q80.2-1.78 78.75-0.98L78.75-0.98Q76.14 0.46 72.94 0.46ZM96.45 0.46L96.45 0.46Q86.88 0.46 86.88-8.28L86.88-8.28 86.86-24.29 84.05-24.17Q82.73-24.17 82.73-25.17 82.73-26.17 84.15-26.17L84.15-26.17 86.49-26.07 86.86-26.07 86.86-29.86 97.33-34.55 97.33-26.07 100.6-26.07 102.92-26.17Q104.36-26.17 104.36-25.15L104.36-25.15Q104.36-24.68 103.96-24.43 103.56-24.17 103.04-24.17L103.04-24.17 100.02-24.29 97.33-24.29 97.33-1.34Q100.19-1.39 102.09-2.98L102.09-2.98Q103-3.66 103.37-4.74 103.75-5.81 104.06-6.12 104.36-6.42 104.78-6.42L104.78-6.42Q105.19-6.42 105.49-6.09 105.78-5.76 105.78-5.31 105.78-4.86 105.53-4.31 105.29-3.76 104.8-3.15L104.8-3.15Q103.7-1.78 102.26-0.98L102.26-0.98Q99.65 0.46 96.45 0.46ZM107.68-13.18L107.68-13.18Q107.68-16.11 108.74-18.52 109.8-20.92 111.66-22.71L111.66-22.71Q115.66-26.51 121.72-26.51L121.72-26.51Q127.9-26.51 131.78-22.56L131.78-22.56Q135.49-18.82 135.49-13.11L135.49-13.11Q135.49-7.37 131.68-3.52L131.68-3.52Q127.75 0.46 121.62 0.46L121.62 0.46Q115.64 0.46 111.71-3.32L111.71-3.32Q107.68-7.23 107.68-13.18ZM120.94-24.71L120.94-1.37Q121.13-1.34 121.33-1.34L121.33-1.34 121.67-1.34Q126.6-1.34 129.95-4.39L129.95-4.39Q133.51-7.69 133.51-13.04L133.51-13.04Q133.51-18.26 130.17-21.51L130.17-21.51Q126.87-24.73 121.65-24.73L121.65-24.73 121.28-24.73Q121.11-24.73 120.94-24.71L120.94-24.71ZM151.77 0.46L151.77 0.46Q142.2 0.46 142.2-8.28L142.2-8.28 142.18-24.29 139.37-24.17Q138.05-24.17 138.05-25.17 138.05-26.17 139.47-26.17L139.47-26.17 141.81-26.07 142.18-26.07 142.18-29.86 152.65-34.55 152.65-26.07 155.92-26.07 158.24-26.17Q159.68-26.17 159.68-25.15L159.68-25.15Q159.68-24.68 159.28-24.43 158.87-24.17 158.36-24.17L158.36-24.17 155.33-24.29 152.65-24.29 152.65-1.34Q155.51-1.39 157.41-2.98L157.41-2.98Q158.31-3.66 158.69-4.74 159.07-5.81 159.37-6.12 159.68-6.42 160.09-6.42L160.09-6.42Q160.51-6.42 160.8-6.09 161.1-5.76 161.1-5.31 161.1-4.86 160.85-4.31 160.61-3.76 160.12-3.15L160.12-3.15Q159.02-1.78 157.58-0.98L157.58-0.98Q154.97 0.46 151.77 0.46ZM187.9-5.93L187.9-5.93Q188.85-5.93 188.85-5.05L188.85-5.05Q188.85-4.39 188-3.49L188-3.49Q184.14 0.46 177.43 0.46L177.43 0.46Q171.4 0.46 167.27-3.17L167.27-3.17Q163-6.96 163-12.74L163-12.74Q163-18.65 166.86-22.46L166.86-22.46Q170.93-26.51 177.69-26.51L177.69-26.51Q183.11-26.51 186.8-23.22L186.8-23.22Q190.78-19.68 190.78-13.92L190.78-13.92Q190.78-13.09 190.73-12.16L190.73-12.16 174.62-12.16 174.62-1.68Q176.28-1.34 178.35-1.34L178.35-1.34Q182.75-1.34 185.85-4.25L185.85-4.25Q186.48-4.88 186.75-5.25L186.75-5.25Q187.31-5.93 187.9-5.93ZM181.38-13.94L181.38-24.27Q179.79-24.73 177.79-24.73 175.79-24.73 174.62-24.46L174.62-24.46 174.62-13.94 181.38-13.94ZM206.75-24.54L206.75-1.56Q207.89-1.34 209.05-1.34 210.21-1.34 211.3-1.53 212.38-1.71 213.36-2.05L213.36-2.05Q215.44-2.78 216.71-3.91L216.71-3.91Q217.61-4.69 218.02-4.69L218.02-4.69Q218.95-4.69 218.95-3.86 218.95-3.03 217.44-1.88L217.44-1.88Q213.92 0.46 208.99 0.46L208.99 0.46Q202.57 0.46 198.62-3.39L198.62-3.39Q194.73-7.2 194.73-13.28L194.73-13.28Q194.73-19.04 198.86-22.8L198.86-22.8Q202.96-26.51 209.16-26.51L209.16-26.51Q212.7-26.51 215.97-25.05L215.97-25.05Q218.46-23.97 218.46-22.83L218.46-22.83Q218.46-22.34 218.18-22.08 217.9-21.83 217.56-21.83L217.56-21.83Q217.05-21.83 216.24-22.39L216.24-22.39Q214.66-23.9 211.53-24.51L211.53-24.51Q210.41-24.73 209.06-24.73 207.72-24.73 206.75-24.54L206.75-24.54ZM244.46-26.51L244.46-26.51Q253.06-26.51 253.06-18.16L253.06-18.16 253.06 0 242.56 0 242.56-23.75Q242.12-24.05 241.4-24.05 240.68-24.05 239.9-23.71 239.12-23.36 238.26-22.75L238.26-22.75Q236.43-21.41 235.01-19.38L235.01-19.38 235.01 0 224.52 0 224.52-34.55 235.01-34.55 235.01-21.95Q239.19-26.51 244.46-26.51Z" opacity="1" transform="matrix(1,0,0,1,0,0)" fill="white" class="wordmark-text-0" id="SvgjsPath3126"></path></svg></g></svg></g></svg></g></svg></g></svg></g><defs><mask></mask></defs></svg><rect width="395.52" height="55.66549023456668" fill="black" stroke="none" visibility="hidden"></rect></g></mask><linearGradient x1="0.054" x2="0.941" y1="0.5" y2="0.5" id="68b278ba-5705-492f-b6d6-0791610f3638"><stop stop-color="#26282a" offset="0"></stop><stop stop-color="#9e9fa0" offset="0.498"></stop><stop stop-color="#26282a" offset="1"></stop></linearGradient><rect width="395.52" height="55.66549023456668" fill="url(#68b278ba-5705-492f-b6d6-0791610f3638)" mask="url(#d217d942-acdf-4e76-b4b1-470f63fe11b2)" data-fill-palette-color="primary"></rect></svg><rect width="395.52" height="55.66549023456668" fill="none" stroke="none" visibility="hidden"></rect></g></svg></g></svg>