<?xml version="1.0" standalone="no"?>
<!DOCTYPE svg PUBLIC "-//W3C//DTD SVG 20010904//EN"
 "http://www.w3.org/TR/2001/REC-SVG-20010904/DTD/svg10.dtd">
<svg version="1.0" xmlns="http://www.w3.org/2000/svg"
 width="32.000000pt" height="32.000000pt" viewBox="0 0 512.000000 512.000000"
 preserveAspectRatio="xMidYMid meet">

<g transform="translate(0.000000,512.000000) scale(0.100000,-0.100000)"
fill="#000000" stroke="none">
<path d="M1208 5106 c-52 -39 -50 -198 2 -226 30 -16 68 -12 90 10 17 17 20
33 20 105 0 74 -3 87 -22 105 -25 23 -65 26 -90 6z"/>
<path d="M2415 5110 c-136 -21 -355 -109 -412 -167 -30 -29 -30 -73 0 -101 33
-32 69 -27 142 16 250 151 595 146 849 -12 254 -158 396 -414 396 -711 0 -377
-236 -690 -605 -801 -79 -23 -107 -27 -225 -27 -118 0 -146 4 -225 27 -368
111 -605 424 -605 800 0 149 26 257 96 392 30 58 54 115 54 125 0 29 -45 69
-76 69 -16 0 -36 -11 -53 -29 -37 -40 -105 -181 -137 -286 -26 -84 -28 -102
-28 -270 0 -168 2 -186 27 -269 106 -344 363 -592 707 -684 81 -21 117 -25
240 -25 125 0 159 4 244 26 340 90 597 341 703 684 25 82 27 101 27 268 0 168
-2 186 -28 270 -105 343 -369 598 -706 685 -97 24 -289 34 -385 20z"/>
<path d="M972 4870 c-32 -30 -30 -82 4 -109 22 -17 41 -21 98 -21 40 0 78 6
87 13 26 20 40 55 33 82 -10 42 -40 55 -124 55 -63 0 -80 -4 -98 -20z"/>
<path d="M1333 4875 c-29 -20 -37 -59 -19 -94 19 -36 32 -41 115 -41 85 0 121
22 121 75 0 57 -29 75 -120 75 -50 0 -83 -5 -97 -15z"/>
<path d="M2514 4797 c-24 -21 -28 -32 -32 -105 -4 -81 -5 -82 -31 -82 -42 0
-123 -44 -162 -87 -52 -58 -72 -117 -67 -200 5 -79 25 -126 76 -179 58 -60
109 -77 252 -84 80 -4 133 -11 146 -20 74 -47 70 -176 -6 -215 -21 -11 -61
-15 -145 -15 -114 0 -117 1 -144 28 -17 17 -30 43 -34 69 -5 28 -16 48 -33 62
-34 26 -54 26 -88 0 -30 -23 -35 -73 -14 -140 24 -82 134 -169 214 -169 l31 0
5 -80 c6 -95 22 -120 78 -120 56 0 72 25 78 120 4 67 7 80 22 80 36 0 109 33
148 66 58 49 92 123 92 200 0 114 -48 198 -142 249 -48 27 -64 30 -178 35 -71
3 -134 11 -147 18 -41 23 -63 62 -63 113 0 40 5 53 34 83 l33 36 127 0 c126 0
128 0 155 -28 17 -17 30 -43 34 -69 12 -74 78 -102 130 -56 24 23 23 105 -4
159 -38 79 -130 144 -202 144 l-34 0 -5 82 c-4 73 -8 84 -32 105 -34 29 -58
29 -92 0z"/>
<path d="M1201 4741 c-43 -43 -40 -170 4 -208 32 -28 55 -29 89 -2 24 19 26
26 26 105 0 71 -3 87 -20 104 -25 25 -74 26 -99 1z"/>
<path d="M4030 4403 c-42 -16 -50 -34 -50 -120 0 -97 16 -123 73 -123 53 0 71
28 75 116 4 71 3 75 -26 104 -30 30 -43 34 -72 23z"/>
<path d="M3775 4155 c-32 -31 -33 -74 -1 -104 21 -19 32 -22 106 -19 76 3 84
5 103 29 14 20 17 35 12 58 -9 43 -48 61 -130 61 -57 0 -69 -3 -90 -25z"/>
<path d="M4136 4159 c-33 -26 -36 -79 -6 -109 28 -28 166 -29 201 -2 33 27 30
78 -5 109 -38 32 -150 34 -190 2z"/>
<path d="M4006 4029 c-24 -19 -26 -26 -26 -104 0 -74 3 -87 22 -105 27 -25 69
-26 99 -1 18 14 23 31 27 79 5 73 -2 106 -28 132 -26 26 -60 25 -94 -1z"/>
<path d="M435 3680 c-31 -12 -235 -225 -235 -244 0 -9 6 -29 14 -44 8 -15 204
-216 435 -447 l421 -420 0 -878 0 -878 25 -24 c31 -32 69 -32 100 0 l25 24 0
856 0 855 530 0 530 0 0 -1165 0 -1165 -530 0 -530 0 0 160 c0 157 -1 161 -25
185 -31 32 -69 32 -100 0 -25 -24 -25 -24 -25 -235 0 -211 0 -211 25 -235 l24
-25 1441 0 1441 0 24 25 25 24 0 846 0 846 -25 24 c-31 32 -69 32 -100 0 l-25
-24 0 -796 0 -795 -530 0 -530 0 0 1165 0 1165 530 0 530 0 0 -220 0 -221 25
-24 c13 -14 36 -25 50 -25 14 0 37 11 50 25 l25 24 0 243 0 243 421 420 c231
231 427 433 435 449 9 15 13 38 10 50 -3 11 -55 70 -115 130 -93 93 -114 109
-141 109 -28 0 -86 -54 -558 -526 l-527 -527 -1015 0 -1015 0 -525 524 c-289
288 -534 526 -545 529 -11 3 -29 2 -40 -3z m457 -607 c236 -236 428 -431 428
-435 0 -5 -30 -8 -68 -8 l-67 0 -400 400 -399 400 34 35 c19 19 36 35 39 35 3
0 198 -192 433 -427z m3808 392 l34 -35 -399 -400 -400 -400 -67 0 c-38 0 -68
3 -68 7 0 9 852 863 860 863 4 0 21 -16 40 -35z m-2010 -2150 l0 -1165 -130 0
-130 0 0 1165 0 1165 130 0 130 0 0 -1165z"/>
<path d="M1172 3404 c-33 -14 -48 -47 -38 -86 3 -13 97 -114 209 -225 179
-179 207 -203 235 -203 44 0 72 30 72 77 0 35 -12 49 -202 239 -112 111 -212
204 -224 206 -12 3 -35 0 -52 -8z"/>
<path d="M3883 3404 c-17 -9 -116 -102 -222 -208 -178 -180 -191 -196 -191
-230 0 -46 29 -76 72 -76 28 0 56 24 235 203 112 111 207 213 210 226 16 63
-45 113 -104 85z"/>
<path d="M1752 3237 c-46 -49 -34 -71 111 -215 146 -144 166 -154 212 -107 48
47 38 67 -108 212 -112 112 -138 133 -163 133 -19 0 -39 -9 -52 -23z"/>
<path d="M3153 3127 c-146 -145 -156 -165 -108 -212 46 -47 66 -37 212 107
114 113 133 136 133 163 0 40 -36 75 -75 75 -24 0 -53 -24 -162 -133z"/>
</g>
</svg>
