<?xml version="1.0" standalone="no"?>
<!DOCTYPE svg PUBLIC "-//W3C//DTD SVG 20010904//EN"
 "http://www.w3.org/TR/2001/REC-SVG-20010904/DTD/svg10.dtd">
<svg version="1.0" xmlns="http://www.w3.org/2000/svg"
 width="32.000000pt" height="32.000000pt" viewBox="0 0 512.000000 512.000000"
 preserveAspectRatio="xMidYMid meet">

<g transform="translate(0.000000,512.000000) scale(0.100000,-0.100000)"
fill="#000000" stroke="none">
<path d="M1381 4359 c-21 -20 -31 -40 -31 -60 0 -25 -4 -29 -26 -29 -55 0
-239 -32 -322 -56 -401 -115 -635 -421 -747 -977 -21 -107 -255 -1881 -255
-1938 0 -212 121 -419 299 -508 105 -53 167 -64 326 -58 372 15 574 149 844
559 64 97 143 219 176 270 111 173 187 233 331 260 99 19 1069 19 1169 0 147
-28 212 -79 332 -263 260 -400 295 -449 384 -543 136 -143 244 -210 415 -256
111 -30 335 -39 421 -17 251 65 423 292 423 556 0 57 -234 1831 -255 1938
-112 556 -346 862 -747 977 -83 24 -267 56 -322 56 -22 0 -26 4 -26 29 0 20
-10 40 -31 60 l-31 31 -188 0 c-182 0 -190 -1 -215 -23 -15 -12 -30 -38 -34
-57 l-7 -35 -704 0 -704 0 -7 35 c-4 19 -19 45 -34 57 -25 22 -33 23 -215 23
l-188 0 -31 -31z m2580 -317 c279 -60 445 -186 568 -430 47 -94 70 -155 102
-281 39 -152 41 -166 169 -1136 123 -927 125 -954 78 -1056 -73 -159 -195
-217 -415 -199 -186 15 -301 65 -421 183 -85 83 -155 177 -292 392 -226 357
-299 431 -472 484 -122 37 -257 45 -718 45 -476 0 -605 -9 -730 -50 -168 -56
-237 -127 -460 -479 -137 -215 -207 -309 -292 -392 -120 -118 -235 -168 -421
-183 -220 -18 -342 40 -415 199 -47 102 -45 129 78 1056 128 967 131 989 170
1139 122 472 362 688 810 726 52 4 651 7 1330 6 1212 -3 1237 -3 1331 -24z"/>
<path d="M1227 3480 c-36 -29 -47 -76 -47 -212 l0 -118 -141 0 -141 0 -29 -29
c-41 -41 -41 -101 0 -142 l29 -29 141 0 141 0 0 -112 c0 -62 5 -131 10 -153
16 -71 79 -103 145 -73 46 21 55 54 55 203 l0 135 135 0 c149 0 182 9 203 55
22 48 11 93 -32 127 -18 15 -44 18 -163 18 l-143 0 0 136 c0 80 -5 144 -11
157 -29 57 -103 75 -152 37z"/>
<path d="M3795 3493 c-204 -25 -364 -177 -395 -375 -41 -268 164 -509 434
-509 121 0 210 33 297 109 157 139 195 364 93 553 -78 143 -269 242 -429 222z
m135 -224 c96 -43 145 -117 144 -219 -1 -76 -24 -131 -77 -177 -154 -135 -396
-29 -397 175 -1 173 175 291 330 221z"/>
<path d="M2274 3138 c-30 -14 -48 -52 -47 -96 2 -56 47 -92 117 -92 65 0 110
31 120 81 8 40 -17 92 -50 108 -31 14 -111 13 -140 -1z"/>
<path d="M2703 3138 c-31 -15 -54 -69 -47 -107 10 -50 55 -81 120 -81 45 0 59
5 85 28 50 45 41 134 -18 161 -30 14 -111 13 -140 -1z"/>
<path d="M1043 2055 c-11 -8 -35 -50 -53 -92 -49 -118 -128 -267 -211 -393
-62 -95 -74 -121 -74 -156 0 -47 17 -72 63 -91 53 -22 92 -4 140 65 101 145
235 391 273 501 28 79 25 117 -10 152 -34 33 -91 40 -128 14z"/>
<path d="M3949 2041 c-49 -50 -36 -117 59 -307 105 -208 222 -387 270 -410 65
-31 137 16 137 90 0 35 -12 60 -74 156 -83 126 -162 275 -211 393 -36 87 -57
107 -113 107 -29 0 -46 -7 -68 -29z"/>
</g>
</svg>
